<svg width="113" height="24" viewBox="0 0 113 24" fill="none" xmlns="http://www.w3.org/2000/svg">
<path d="M22.377 19.2883C19.0495 22.323 14.8835 19.2883 14.8369 19.2883C9.34654 15.2953 5.12062 18.9223 5.08069 18.9555C5.05402 18.9859 5.03931 19.0249 5.03931 19.0653C5.03931 19.1058 5.05402 19.1448 5.08069 19.1752C5.1004 19.2102 5.13217 19.237 5.17011 19.2505C5.20804 19.2639 5.24957 19.2632 5.28699 19.2484C8.894 17.8308 13.3795 22.2298 13.4327 22.283C14.4219 23.2937 15.7485 23.9049 17.1595 24C17.4437 23.9991 17.7271 23.9679 18.0047 23.9069C20.9196 23.2879 22.5767 19.6743 22.6632 19.5212C22.6796 19.4843 22.6827 19.4428 22.6717 19.4039C22.6608 19.365 22.6366 19.3312 22.6033 19.3083C22.5743 19.2782 22.5355 19.2596 22.4939 19.2559C22.4523 19.2523 22.4108 19.2638 22.377 19.2883Z" fill="#231815"/>
<path d="M28.8722 6.45078H24.8127C24.7171 6.45078 24.6396 6.52824 24.6396 6.62381V21.897C24.6396 21.9926 24.7171 22.07 24.8127 22.07H28.8722C28.9678 22.07 29.0453 21.9926 29.0453 21.897V6.62381C29.0453 6.52824 28.9678 6.45078 28.8722 6.45078Z" fill="#231815"/>
<path d="M45.676 10.4371C45.3065 9.59967 44.7801 8.84066 44.1254 8.20105C43.4607 7.56067 42.6819 7.05053 41.8294 6.69702C40.9412 6.32998 39.9886 6.14443 39.0276 6.15131C38.119 6.14641 37.2171 6.3065 36.3656 6.62381C35.5909 6.91317 34.8709 7.33171 34.236 7.86164L33.0182 6.53064C32.9847 6.49687 32.9392 6.47773 32.8917 6.4774H31.9467C31.902 6.47737 31.8589 6.49468 31.8267 6.52571C31.7944 6.55673 31.7754 6.59905 31.7737 6.64378V21.9503C31.7737 21.9962 31.7919 22.0402 31.8244 22.0726C31.8568 22.1051 31.9008 22.1233 31.9467 22.1233H35.9796C36.0255 22.1233 36.0695 22.1051 36.102 22.0726C36.1344 22.0402 36.1527 21.9962 36.1527 21.9503V13.1657C36.1518 12.7994 36.2266 12.4369 36.3723 12.1009C36.6692 11.4284 37.2192 10.9 37.9029 10.6301C38.6209 10.3442 39.4211 10.3442 40.139 10.6301C40.4758 10.7678 40.7831 10.9689 41.0441 11.2224C41.303 11.4729 41.5109 11.7713 41.6563 12.1009C41.802 12.4369 41.8768 12.7994 41.876 13.1657V21.897C41.876 21.9429 41.8942 21.9869 41.9266 22.0194C41.9591 22.0518 42.0031 22.0701 42.049 22.0701H46.0819C46.1278 22.0701 46.1718 22.0518 46.2043 22.0194C46.2367 21.9869 46.255 21.9429 46.255 21.897V13.1657C46.2569 12.2255 46.0595 11.2955 45.676 10.4371Z" fill="#231815"/>
<path d="M31.947 1.85884C31.9605 1.82528 31.9638 1.78853 31.9567 1.75308C31.9496 1.71763 31.9324 1.68501 31.9071 1.65919C31.8786 1.64002 31.845 1.62978 31.8106 1.62978C31.7762 1.62978 31.7426 1.64002 31.7141 1.65919L31.5211 1.75236C30.4962 2.27145 29.5912 1.58599 28.7194 0.920486C28.1587 0.435654 27.4608 0.137864 26.7229 0.0686467C26.4394 0.0666624 26.1571 0.104751 25.8843 0.181782H25.8444C25.4408 0.29316 25.0584 0.470827 24.713 0.707526C24.6902 0.722944 24.6716 0.743783 24.6588 0.768175C24.646 0.792566 24.6395 0.819748 24.6398 0.847281V5.05324C24.6383 5.08514 24.6463 5.11678 24.6629 5.14407C24.6795 5.17135 24.704 5.19303 24.733 5.2063H24.8062C24.8455 5.20716 24.8836 5.19286 24.9127 5.16637L25.0391 5.06655H25.0857C25.1022 5.05683 25.1159 5.04309 25.1257 5.02662C25.3652 4.84028 25.5782 4.68721 25.7912 4.56077C26.2926 4.22219 26.8907 4.05631 27.4948 4.08826H27.5813H27.9607C28.971 4.24344 30.0023 4.00525 30.8423 3.42276L30.9687 3.36952C31.0492 3.2969 31.1247 3.2191 31.195 3.1366H31.2349L31.3481 2.99019C31.5582 2.69468 31.7325 2.37521 31.8672 2.03853L31.947 1.85884Z" fill="#231815"/>
<path d="M5.71292 15.3485C5.71882 15.3221 5.7189 15.2947 5.71315 15.2683C5.70741 15.2419 5.69597 15.217 5.67965 15.1954C4.62809 13.9515 4.06928 12.365 4.10907 10.7366C4.13316 9.6334 4.42795 8.55303 4.96751 7.59049C5.50707 6.62794 6.27487 5.81272 7.20339 5.21651C8.13191 4.6203 9.1927 4.26137 10.2925 4.17128C11.3922 4.08119 12.4973 4.2627 13.5105 4.69986C14.5236 5.13702 15.4139 5.81642 16.1029 6.67833C16.7919 7.54023 17.2586 8.55823 17.4619 9.64279C17.6652 10.7274 17.5989 11.8453 17.2688 12.8982C16.9388 13.9511 16.355 14.9068 15.569 15.6813C15.5519 15.6987 15.5389 15.7196 15.5309 15.7426C15.5228 15.7656 15.5199 15.7901 15.5224 15.8144C15.5224 15.8393 15.5284 15.8638 15.54 15.8858C15.5516 15.9079 15.5684 15.9267 15.5889 15.9408L15.9616 16.2137C16.9567 16.9016 18.094 17.3566 19.2891 17.5447C19.3156 17.5471 19.3422 17.5429 19.3666 17.5324C19.391 17.5219 19.4124 17.5056 19.4289 17.4848C20.4794 16.1266 21.1926 14.5385 21.5097 12.851C21.8268 11.1635 21.7388 9.42488 21.2529 7.77803C20.7671 6.13119 19.8972 4.6232 18.7149 3.37809C17.5325 2.13298 16.0715 1.18632 14.452 0.615966C12.8325 0.0456075 11.1007 -0.132156 9.39906 0.0972951C7.69743 0.326746 6.07458 0.956856 4.66396 1.93581C3.25334 2.91476 2.09526 4.21458 1.28495 5.72838C0.474647 7.24217 0.0352634 8.9267 0.0029385 10.6434C-0.0507506 12.9438 0.632487 15.201 1.95285 17.0855C1.97719 17.121 2.01438 17.1457 2.05658 17.1544C2.09879 17.1631 2.14271 17.1551 2.17912 17.132C3.26262 16.4677 4.40825 15.9105 5.59979 15.4683C5.62657 15.4583 5.6507 15.4424 5.67032 15.4216C5.68993 15.4008 5.70451 15.3758 5.71292 15.3485Z" fill="#231815"/>
<path d="M67.657 0.0154114C67.7611 0.0154114 67.8443 0.0567704 67.9067 0.139488C67.9899 0.201527 68.0315 0.284244 68.0315 0.38764V3.42751C68.0315 3.5309 67.9899 3.62396 67.9067 3.70668C67.8443 3.76872 67.7611 3.79974 67.657 3.79974H62.9138C62.8097 3.79974 62.7577 3.85143 62.7577 3.95483V21.3565C62.7577 21.4599 62.7161 21.553 62.6329 21.6357C62.5705 21.6977 62.4873 21.7287 62.3833 21.7287H58.7322C58.6282 21.7287 58.5346 21.6977 58.4513 21.6357C58.3889 21.553 58.3577 21.4599 58.3577 21.3565V3.95483C58.3577 3.85143 58.3057 3.79974 58.2017 3.79974H53.6145C53.5104 3.79974 53.4168 3.76872 53.3336 3.70668C53.2712 3.62396 53.24 3.5309 53.24 3.42751V0.38764C53.24 0.284244 53.2712 0.201527 53.3336 0.139488C53.4168 0.0567704 53.5104 0.0154114 53.6145 0.0154114H67.657Z" fill="#F43F5E"/>
<path d="M74.3107 21.9769C72.5008 21.9769 71.0133 21.5323 69.8483 20.6431C68.7041 19.7332 68.0175 18.4924 67.7887 16.9208C67.6223 15.9695 67.539 14.9046 67.539 13.7258C67.539 12.5264 67.6223 11.4614 67.7887 10.5309C68.0175 9.00059 68.7041 7.79085 69.8483 6.90164C71.0133 5.99175 72.5008 5.5368 74.3107 5.5368C76.0998 5.5368 77.5561 5.99175 78.6795 6.90164C79.8237 7.79085 80.5206 9.00059 80.7703 10.5309C80.9367 11.4614 81.0199 12.5264 81.0199 13.7258C81.0199 14.8839 80.9367 15.9385 80.7703 16.8898C80.5414 18.4821 79.8549 19.7332 78.7107 20.6431C77.5873 21.5323 76.1206 21.9769 74.3107 21.9769ZM74.3107 18.2236C74.8516 18.2236 75.3093 18.0478 75.6837 17.6963C76.079 17.3447 76.3391 16.8691 76.4639 16.2694C76.5679 15.4009 76.6199 14.553 76.6199 13.7258C76.6199 12.878 76.5679 12.0405 76.4639 11.2133C76.3599 10.6136 76.1102 10.1483 75.7149 9.81743C75.3405 9.46588 74.862 9.2901 74.2795 9.2901C73.7178 9.2901 73.2393 9.46588 72.844 9.81743C72.4695 10.1483 72.2303 10.6136 72.1263 11.2133C72.0223 11.8337 71.9703 12.6712 71.9703 13.7258C71.9703 14.7598 72.0119 15.6076 72.0951 16.2694C72.2199 16.8691 72.4799 17.3447 72.8752 17.6963C73.2705 18.0478 73.749 18.2236 74.3107 18.2236Z" fill="#F43F5E"/>
<path d="M92.0958 0.38764C92.0958 0.284244 92.127 0.201527 92.1894 0.139488C92.2726 0.0567704 92.3662 0.0154114 92.4702 0.0154114H96.1213C96.2253 0.0154114 96.3085 0.0567704 96.3709 0.139488C96.4542 0.201527 96.4958 0.284244 96.4958 0.38764V21.3565C96.4958 21.4599 96.4542 21.553 96.3709 21.6357C96.3085 21.6977 96.2253 21.7287 96.1213 21.7287H92.4702C92.3662 21.7287 92.2726 21.6977 92.1894 21.6357C92.127 21.553 92.0958 21.4599 92.0958 21.3565V20.6741C92.0958 20.6121 92.075 20.5707 92.0333 20.55C91.9917 20.5293 91.9501 20.55 91.9085 20.6121C91.1388 21.5219 90.0362 21.9769 88.6007 21.9769C86.0627 21.9769 84.4296 20.3329 83.7014 17.0449C83.4934 16.0109 83.3894 14.8632 83.3894 13.6018C83.3894 12.4851 83.483 11.3994 83.6702 10.3448C84.3151 7.13945 85.9794 5.5368 88.6631 5.5368C89.3913 5.5368 90.0154 5.6402 90.5355 5.84699C91.0556 6.0331 91.5133 6.36398 91.9085 6.8396C91.9501 6.90164 91.9917 6.92232 92.0333 6.90164C92.075 6.88096 92.0958 6.8396 92.0958 6.77756V0.38764ZM91.8461 16.4245C91.9917 15.8248 92.0646 14.9252 92.0646 13.7258C92.0646 12.6298 91.9813 11.7199 91.8149 10.9962C91.5445 9.85879 90.9307 9.2901 89.9738 9.2901C89.4953 9.2901 89.1 9.43486 88.788 9.72437C88.4759 10.0139 88.2471 10.4275 88.1014 10.9651C87.9142 11.5648 87.8206 12.4851 87.8206 13.7258C87.8206 14.9046 87.8934 15.7938 88.039 16.3935C88.3095 17.6135 88.9544 18.2236 89.9738 18.2236C90.9099 18.2236 91.5341 17.6239 91.8461 16.4245Z" fill="#F43F5E"/>
<path d="M105.76 21.9769C103.95 21.9769 102.463 21.5323 101.298 20.6431C100.154 19.7332 99.4671 18.4924 99.2382 16.9208C99.0718 15.9695 98.9886 14.9046 98.9886 13.7258C98.9886 12.5264 99.0718 11.4614 99.2382 10.5309C99.4671 9.00059 100.154 7.79085 101.298 6.90164C102.463 5.99175 103.95 5.5368 105.76 5.5368C107.549 5.5368 109.006 5.99175 110.129 6.90164C111.273 7.79085 111.97 9.00059 112.22 10.5309C112.386 11.4614 112.469 12.5264 112.469 13.7258C112.469 14.8839 112.386 15.9385 112.22 16.8898C111.991 18.4821 111.304 19.7332 110.16 20.6431C109.037 21.5323 107.57 21.9769 105.76 21.9769ZM105.76 18.2236C106.301 18.2236 106.759 18.0478 107.133 17.6963C107.529 17.3447 107.789 16.8691 107.913 16.2694C108.017 15.4009 108.069 14.553 108.069 13.7258C108.069 12.878 108.017 12.0405 107.913 11.2133C107.809 10.6136 107.56 10.1483 107.164 9.81743C106.79 9.46588 106.312 9.2901 105.729 9.2901C105.167 9.2901 104.689 9.46588 104.294 9.81743C103.919 10.1483 103.68 10.6136 103.576 11.2133C103.472 11.8337 103.42 12.6712 103.42 13.7258C103.42 14.7598 103.461 15.6076 103.545 16.2694C103.669 16.8691 103.929 17.3447 104.325 17.6963C104.72 18.0478 105.199 18.2236 105.76 18.2236Z" fill="#F43F5E"/>
</svg>